<?xml version="1.0" encoding="UTF-8" standalone="no"?>
<!-- Created with Inkscape (http://www.inkscape.org/) -->

<svg
   width="1250"
   height="600"
   viewBox="0 0 1250.0001 600.00003"
   version="1.1"
   id="svg1"
   xml:space="preserve"
   inkscape:version="1.3.2 (091e20ef0f, 2023-11-25)"
   sodipodi:docname="OpenGL_Timeline.svg"
   xmlns:inkscape="http://www.inkscape.org/namespaces/inkscape"
   xmlns:sodipodi="http://sodipodi.sourceforge.net/DTD/sodipodi-0.dtd"
   xmlns="http://www.w3.org/2000/svg"
   xmlns:svg="http://www.w3.org/2000/svg"><sodipodi:namedview
     id="namedview1"
     pagecolor="#012e36"
     bordercolor="#000000"
     borderopacity="0.24705882"
     inkscape:showpageshadow="2"
     inkscape:pageopacity="0.0"
     inkscape:pagecheckerboard="false"
     inkscape:deskcolor="#191919"
     inkscape:document-units="px"
     inkscape:zoom="0.72248176"
     inkscape:cx="679.60193"
     inkscape:cy="410.39098"
     inkscape:window-width="2104"
     inkscape:window-height="1139"
     inkscape:window-x="2047"
     inkscape:window-y="201"
     inkscape:window-maximized="0"
     inkscape:current-layer="layer1" /><defs
     id="defs1"><marker
   style="overflow:visible"
   id="RoundedArrow"
   refX="0"
   refY="0"
   orient="auto-start-reverse"
   inkscape:stockid="Rounded arrow"
   markerWidth="1"
   markerHeight="1"
   viewBox="0 0 1 1"
   inkscape:isstock="true"
   inkscape:collect="always"
   preserveAspectRatio="xMidYMid"><path
     transform="scale(0.7)"
     d="m -0.21114562,-4.1055728 6.42229122,3.21114561 a 1,1 90 0 1 0,1.78885438 L -0.21114562,4.1055728 A 1.236068,1.236068 31.717474 0 1 -2,3 v -6 a 1.236068,1.236068 148.28253 0 1 1.78885438,-1.1055728 z"
     style="fill:context-stroke;fill-rule:evenodd;stroke:none"
     id="path8" /></marker>
	
	

	

		
		
		
		
		
		
	
	
		
		
	
	

	
	
	

	
	
</defs><g
     inkscape:label="Background"
     inkscape:groupmode="layer"
     id="layer1"
     style="display:inline"><rect
       style="font-variation-settings:'wght' 800;fill:#000000;fill-opacity:0.25;stroke:none;stroke-width:2;stroke-linecap:round;stroke-linejoin:round;stroke-dasharray:none;stroke-opacity:1;paint-order:stroke markers fill"
       id="rect11"
       width="1250"
       height="150"
       x="0"
       y="224.7321" /><rect
       style="font-variation-settings:'wght' 800;fill:#000000;fill-opacity:0.25;stroke:none;stroke-width:2;stroke-linecap:round;stroke-linejoin:round;stroke-dasharray:none;stroke-opacity:1;paint-order:stroke markers fill"
       id="rect12"
       width="1250"
       height="150"
       x="0"
       y="431.35986" /><rect
       style="font-variation-settings:'wght' 800;fill:#000000;fill-opacity:0.25;stroke:none;stroke-width:2;stroke-linecap:round;stroke-linejoin:round;stroke-dasharray:none;stroke-opacity:1;paint-order:stroke markers fill"
       id="rect10"
       width="1250"
       height="150"
       x="0"
       y="18.372231" /><path
       id="path1"
       style="fill:#ba2a8d;stroke:#ffffff;stroke-width:2;stroke-linecap:round;stroke-linejoin:round;stroke-dasharray:none;stroke-opacity:1;paint-order:stroke markers fill"
       d="m 113.74115,247.35988 c -50.102437,0 -90.711007,23.43897 -90.711007,52.34853 0,28.93282 40.60887,52.39592 90.688027,52.39592 32.57938,0 61.13219,-10.49721 77.11935,-25.39424 -14.61417,8.89166 -36.51243,13.94256 -60.94697,13.94256 -29.92314,0 -55.979417,-8.48581 -69.601147,-21.02015 0.45925,0.26253 0.92858,0.51414 1.41746,0.74555 2.60635,1.23365 5.63202,1.86169 9.0994,1.86169 3.46738,0 6.4916,-0.62804 9.09795,-1.86169 2.606347,-1.23366 4.794867,-2.90955 6.540187,-5.02772 1.74533,-2.11817 3.04786,-4.53923 3.93215,-7.28587 0.8843,-2.74664 1.327,-5.60965 1.327,-8.56578 0,-2.95613 -0.4427,-5.79472 -1.327,-8.54136 -0.86102,-2.74664 -2.18682,-5.1677 -3.93215,-7.28588 -1.74532,-2.11817 -3.93384,-3.79519 -6.540187,-5.05213 -2.60635,-1.25693 -5.63057,-1.88467 -9.09795,-1.88467 -3.46738,0 -6.49305,0.62774 -9.0994,1.88467 -0.0898,0.0433 -0.17543,0.0907 -0.26425,0.13503 13.90788,-11.96704 39.351397,-19.98874 68.447937,-19.98874 24.52763,0 46.49508,5.14339 61.10926,14.10488 -15.94062,-14.96685 -44.53966,-25.5106 -77.25866,-25.5106 z m 150.49326,18.1328 v 68.33951 z m -62.80821,11.14859 c -3.35102,0 -6.35315,0.58265 -9.00604,1.76976 -2.65289,1.1871 -4.91032,2.81531 -6.72546,4.88693 -1.81513,2.07162 -3.21184,4.51566 -4.18922,7.30885 -0.97738,2.7932 -1.4663,5.81989 -1.4663,9.07861 0,3.16562 0.48892,6.14523 1.4663,8.89187 0.97738,2.76992 2.37379,5.14416 4.2122,7.1925 1.83841,2.02506 4.09554,3.63117 6.74843,4.795 2.67617,1.16383 5.6783,1.74533 9.00604,1.74533 2.11766,0 4.212,-0.41838 6.28312,-1.3029 2.07112,-0.8845 3.97972,-2.42168 5.6785,-4.60968 l 0.97802,4.93577 h 6.07344 v -23.55698 h -18.26772 v 7.16951 h 9.61066 c -0.27925,3.02597 -1.3039,5.3537 -3.02595,6.95979 -1.72206,1.60609 -4.18819,2.3975 -7.35305,2.3975 -2.1642,0 -3.97919,-0.41896 -5.4918,-1.25693 -1.48934,-0.83796 -2.7227,-1.93174 -3.65355,-3.32834 -0.93083,-1.3966 -1.60578,-2.9329 -2.04793,-4.67864 -0.44215,-1.74575 -0.65201,-3.51494 -0.65201,-5.3538 0,-1.90868 0.23313,-3.77122 0.65201,-5.56352 0.44215,-1.7923 1.1171,-3.3984 2.04793,-4.795 0.93085,-1.39659 2.14094,-2.51336 3.65355,-3.35133 1.51261,-0.83796 3.3276,-1.25692 5.4918,-1.25692 2.30384,0 4.28219,0.62832 5.91117,1.8387 1.62896,1.23366 2.74605,3.04909 3.30456,5.49314 h 9.14534 c -0.25598,-2.46733 -0.93122,-4.67906 -2.02496,-6.58774 -1.11701,-1.93196 -2.49044,-3.53748 -4.18922,-4.84097 -1.69879,-1.30349 -3.58268,-2.30426 -5.67707,-2.97927 -2.09439,-0.65175 -4.25878,-1.00124 -6.49279,-1.00124 z m 123.00982,0 c -7.86561,0 -16.28873,4.26053 -16.28873,13.17547 0,8.17009 6.51483,10.68335 12.98417,12.38254 6.42278,1.69919 12.93964,2.49062 12.93964,7.1925 0,4.44583 -5.12079,5.42274 -8.47181,5.42274 -5.11962,0 -9.63364,-2.25708 -9.63364,-8.05296 h -9.26168 c -0.11635,10.7538 8.91215,15.50259 18.54634,15.50259 11.82165,0 18.10543,-5.9831 18.10543,-13.96698 0,-9.86928 -9.77333,-11.89423 -12.93819,-12.68563 -10.9141,-2.79319 -12.9856,-3.23447 -12.9856,-6.5863 0,-3.65443 3.53764,-4.93578 6.58614,-4.93578 4.58439,0 8.30715,1.3505 8.60967,6.58774 h 9.26168 c 0,-10.07877 -8.35446,-14.03593 -17.45342,-14.03593 z m -79.81931,0.97824 c -0.74467,0 -1.41962,0.16196 -2.04793,0.53438 -0.62832,0.34915 -1.11695,0.86117 -1.48928,1.48964 -0.37234,0.65175 -0.55866,1.32686 -0.55866,2.04844 0,0.74484 0.18632,1.41996 0.55866,2.04843 0.34906,0.62847 0.86096,1.11721 1.48928,1.48963 0.65159,0.34916 1.32654,0.53582 2.04793,0.53582 0.74467,0 1.41962,-0.16339 2.04794,-0.53582 0.62832,-0.34914 1.11694,-0.86116 1.48928,-1.48963 0.37234,-0.62847 0.55865,-1.32686 0.55865,-2.04843 0,-0.72158 -0.18631,-1.39669 -0.55865,-2.04844 -0.34907,-0.62847 -0.86096,-1.11721 -1.48928,-1.48964 -0.62832,-0.34914 -1.32653,-0.53438 -2.04794,-0.53438 z m 99.80896,0.023 v 1.27991 h 1.69895 v 4.39997 h 1.4663 v -4.39996 h 1.69895 v -1.2799 z m -72.67449,0.0229 v 43.57445 h 33.04418 v -8.05434 h -23.47949 v -10.68316 h 21.10554 v -7.44964 h -21.10554 v -9.33284 h 22.9912 v -8.05439 z m 78.1907,0 v 5.65689 h 1.39593 v -4.3066 h 0.023 l 1.18768,4.3066 h 1.11589 l 1.18768,-4.3066 h 0.023 v 4.32958 h 1.39594 v -5.67987 h -2.16428 l -0.97656,3.77078 h -0.0244 l -0.9766,-3.77078 h -2.16425 z m -123.47656,0.0934 v 43.55005 h 30.788 v -8.10036 h -21.2233 v -35.4497 z m 18.17437,0.65216 c 0.90757,0 1.6764,0.30209 2.32799,0.95384 0.62831,0.65174 0.9536,1.41932 0.9536,2.32711 0,0.90778 -0.32529,1.70007 -0.9536,2.32854 -0.65159,0.62847 -1.42042,0.95383 -2.32799,0.95383 -0.90757,0 -1.67496,-0.30208 -2.32655,-0.95383 -0.62832,-0.65174 -0.95359,-1.42076 -0.95359,-2.32854 0,-0.90779 0.30201,-1.67537 0.95359,-2.32711 0.65159,-0.62847 1.41898,-0.95384 2.32655,-0.95384 z m -1.86123,1.11616 v 4.39996 h 1.09433 v -1.72235 c 0.0698,-0.0232 0.11604,-0.023 0.13931,-0.023 0.13962,0 0.27829,0.0698 0.41792,0.23271 0.13962,0.16294 0.41982,0.65168 0.8387,1.48964 h 1.30258 c -0.46542,-0.81468 -0.69796,-1.23365 -0.69796,-1.25693 -0.11636,-0.18621 -0.23263,-0.34933 -0.34899,-0.44243 -0.0931,-0.0698 -0.20906,-0.13991 -0.37196,-0.20973 0.39561,-0.0931 0.6985,-0.25594 0.88467,-0.46542 0.18616,-0.23277 0.27861,-0.46593 0.27861,-0.76853 0,-0.3957 -0.11598,-0.67509 -0.37196,-0.90786 -0.25598,-0.20949 -0.65217,-0.32608 -1.21067,-0.32608 z m 1.09433,0.72255 h 0.51127 c 0.30252,0 0.51268,0.0692 0.62903,0.16232 0.11635,0.0931 0.18526,0.23354 0.18526,0.39648 0,0.16293 -0.0457,0.30192 -0.18526,0.39503 -0.13963,0.11639 -0.37246,0.16376 -0.67499,0.16376 h -0.46531 z m -173.066527,1.3503 c 2.62961,0 4.93355,0.51114 6.84178,1.55859 1.90821,1.04745 3.467117,2.42066 4.700487,4.11985 1.23335,1.69919 2.11673,3.60882 2.69851,5.75026 0.58177,2.14145 0.86168,4.30637 0.86168,6.49437 0,2.188 -0.27991,4.35148 -0.86168,6.49293 -0.58178,2.11817 -1.46516,4.05107 -2.69851,5.75026 -1.2101,1.72247 -2.792277,3.07241 -4.700487,4.11985 -1.90823,1.04745 -4.18889,1.5586 -6.84178,1.5586 -2.65289,0 -4.93356,-0.51115 -6.84178,-1.5586 -1.90822,-1.04744 -3.46713,-2.42066 -4.7005,-4.11985 -1.23335,-1.69919 -2.11816,-3.60881 -2.69994,-5.75026 -0.58177,-2.11817 -0.86169,-4.28165 -0.86169,-6.49293 0,-2.188 0.27992,-4.35292 0.86169,-6.49437 0.58178,-2.11817 1.46659,-4.05107 2.69994,-5.75026 1.2101,-1.72247 2.79228,-3.0724 4.7005,-4.11985 1.90822,-1.04745 4.18889,-1.55859 6.84178,-1.55859 z m 66.555107,11.28793 c -1.88496,0 -3.65375,0.35004 -5.23617,1.07162 -1.6057,0.72158 -2.97972,1.72205 -4.14327,3.00226 -1.16355,1.30349 -2.0699,2.81654 -2.72149,4.56229 -0.65159,1.76902 -0.97801,3.67806 -0.97801,5.79623 0.0698,2.11818 0.37211,4.0499 0.93062,5.8422 0.5585,1.7923 1.37326,3.32804 2.49027,4.60826 1.117,1.28021 2.48988,2.28212 4.11885,3.0037 1.62896,0.72157 3.56111,1.07018 5.77185,1.07018 3.16486,0 5.77022,-0.792 7.84133,-2.35153 2.07112,-1.55954 3.4219,-3.91053 4.02694,-7.07615 h -4.51522 c -0.39561,1.81558 -1.20952,3.18937 -2.44288,4.07389 -1.23337,0.90779 -2.8164,1.3503 -4.74789,1.3503 -1.48934,0 -2.79217,-0.25673 -3.90917,-0.74554 -1.09374,-0.48881 -2.00153,-1.16308 -2.72293,-2.00103 -0.7214,-0.83796 -1.23385,-1.79191 -1.55965,-2.8859 -0.30252,-1.07073 -0.46445,-2.23576 -0.41791,-3.44614 h 20.80394 c 0.0698,-1.67592 -0.093,-3.44427 -0.46531,-5.3064 -0.37234,-1.83885 -1.07055,-3.56125 -2.04793,-5.14406 -1.00066,-1.55953 -2.30463,-2.86297 -3.93359,-3.88714 -1.62898,-1.02417 -3.67566,-1.53704 -6.14238,-1.53704 z m -28.08807,0.0244 c -1.93149,0 -3.70084,0.3489 -5.30654,1.0472 -1.6057,0.6983 -2.79254,1.81507 -3.53721,3.35133 h -0.0933 v -3.7478 h -4.53678 v 38.29104 h 4.58417 v -14.31604 h 0.0933 c 0.48869,0.83796 1.11686,1.51278 1.83826,2.07141 0.7214,0.55864 1.51206,1.00145 2.32655,1.32732 0.81448,0.32588 1.65251,0.55847 2.49026,0.69813 0.83777,0.13966 1.60574,0.20973 2.2806,0.20973 2.09439,0 3.95534,-0.37273 5.53777,-1.11758 1.58243,-0.74486 2.90937,-1.76917 3.95657,-3.07266 1.04719,-1.30348 1.839,-2.83952 2.35096,-4.58527 0.51197,-1.76902 0.7669,-3.63127 0.7669,-5.58651 0,-1.95523 -0.27906,-3.81633 -0.81429,-5.56208 -0.53523,-1.74574 -1.32674,-3.28263 -2.37394,-4.63267 -1.04719,-1.35004 -2.37271,-2.39761 -3.95513,-3.18901 -1.6057,-0.79141 -3.4672,-1.18654 -5.60815,-1.18654 z m 57.15269,0 c -4.14223,0 -7.14377,1.69887 -9.05199,5.05069 h -0.0933 v -4.39996 h -4.32853 v 27.74578 h 4.58416 v -15.66491 c 0,-1.25693 0.16363,-2.42024 0.51271,-3.46768 0.34906,-1.07072 0.86037,-1.97815 1.53523,-2.76956 0.67485,-0.76812 1.53671,-1.39674 2.56064,-1.81572 1.02392,-0.44225 2.2343,-0.65216 3.63056,-0.65216 1.76859,0 3.14118,0.51173 4.14183,1.51262 1.00066,1.00089 1.51226,2.35141 1.51226,4.07388 v 18.76055 h 4.58417 v -18.24916 c 0,-1.4897 -0.16279,-2.8632 -0.46531,-4.09686 -0.30253,-1.23366 -0.83796,-2.30449 -1.58263,-3.18901 -0.74468,-0.90778 -1.74549,-1.58231 -2.95558,-2.0944 -1.23336,-0.48881 -2.74576,-0.7441 -4.58417,-0.7441 z m -57.85209,4.02648 c 1.46608,0 2.72354,0.27854 3.81728,0.86046 1.09373,0.58191 1.9774,1.35122 2.67553,2.30556 0.69813,0.97762 1.21058,2.0717 1.55964,3.30536 0.34907,1.23366 0.51156,2.48943 0.4883,3.74636 0,1.35004 -0.13867,2.67732 -0.41792,3.95753 -0.30253,1.28022 -0.74578,2.42082 -1.39736,3.42172 -0.62832,1.00089 -1.48904,1.81529 -2.53623,2.42048 -1.0472,0.60519 -2.373,0.90786 -3.93217,0.90786 -1.55915,0 -2.88552,-0.30296 -4.00253,-0.88488 -1.117,-0.58191 -2.00181,-1.37277 -2.69994,-2.32711 -0.67486,-0.97762 -1.18646,-2.07112 -1.51225,-3.35133 -0.3258,-1.25693 -0.48973,-2.58449 -0.48973,-3.93454 0,-1.28022 0.13981,-2.53682 0.44233,-3.79376 0.30252,-1.25694 0.79144,-2.37371 1.4663,-3.35133 0.69813,-0.97762 1.55911,-1.76933 2.62958,-2.37452 1.07046,-0.60519 2.37329,-0.90786 3.90917,-0.90786 z m 28.48444,0.0229 c 1.16355,0 2.18673,0.18578 3.14084,0.60476 0.95411,0.39571 1.76916,0.9551 2.4673,1.65341 0.69812,0.69829 1.23412,1.53652 1.65299,2.49086 0.41888,0.97762 0.65142,1.97751 0.69797,3.04824 h -15.89522 c 0.0698,-1.07073 0.3038,-2.07091 0.69941,-3.02526 0.3956,-0.95434 0.93074,-1.76929 1.6056,-2.49087 0.69813,-0.69829 1.48876,-1.25739 2.44287,-1.67638 0.95411,-0.3957 2.00142,-0.60476 3.18824,-0.60476 z" /><path
       id="path1-3"
       style="fill:#5586a4;fill-opacity:1;stroke:#ffffff;stroke-width:2;stroke-linecap:round;stroke-linejoin:round;stroke-dasharray:none;stroke-opacity:1;paint-order:stroke markers fill"
       d="M 113.84224,41.000002 C 62.57217,40.992002 21.00442,64.432992 21,93.357152 c -0.004,28.923678 41.55471,52.380328 92.825,52.387308 33.34285,0.006 62.54584,-10.4958 78.91742,-25.3842 -14.95973,8.89282 -37.36638,13.95407 -62.36588,13.95407 -30.72854,0 -57.47729,-8.53509 -71.38055,-21.13795 0.51647,0.29485 1.04716,0.57607 1.6013,0.83317 2.66779,1.23644 5.77473,1.85594 9.31912,1.85594 3.54324,0 6.65014,-0.61974 9.31769,-1.85594 2.66754,-1.23762 4.89889,-2.91314 6.69098,-5.0234 1.7921,-2.11096 3.13819,-4.53784 4.03412,-7.27726 0.89617,-2.739188 1.34566,-5.590958 1.34566,-8.554288 0,-2.96334 -0.44949,-5.81511 -1.34566,-8.55429 -0.89593,-2.73942 -2.24202,-5.16676 -4.03412,-7.27725 -1.79209,-2.11049 -4.02344,-3.79617 -6.69098,-5.05357 -2.66755,-1.25763 -5.77445,-1.88754 -9.31769,-1.88754 -3.54462,0 -6.65133,0.62968 -9.31912,1.88754 -0.0914,0.0431 -0.17817,0.0909 -0.26856,0.13503 14.23703,-11.96199 40.27402,-19.97581 70.04781,-19.97581 25.09119,0 47.58807,5.15644 62.54826,14.10488 -16.3292,-14.99313 -45.60661,-25.52847 -79.08256,-25.53359 z m 89.76889,29.29001 c -3.41385,0 -6.48374,0.59254 -9.20854,1.77406 -2.72456,1.18315 -5.02027,2.81218 -6.88917,4.89125 -1.86843,2.07906 -3.29926,4.51344 -4.2955,7.30454 -0.99576,2.79226 -1.49502,5.81966 -1.49502,9.07861 0,3.17865 0.49934,6.14414 1.4979,8.894738 0.99902,2.75082 2.43535,5.14528 4.30842,7.18244 1.87308,2.0388 4.17113,3.63804 6.89779,4.79931 2.7262,1.15988 5.79468,1.74246 9.20854,1.74246 2.1621,0 4.30562,-0.43844 6.42817,-1.31294 2.12253,-0.87427 4.05843,-2.41045 5.80631,-4.60682 l 0.99669,4.94152 h 6.2228 V 91.423632 h -18.7 v 7.16664 h 9.86198 c -0.29228,3.043658 -1.32326,5.367728 -3.09488,6.969838 -1.77115,1.6026 -4.28037,2.40325 -7.52969,2.40325 -2.20981,0 -4.08557,-0.41842 -5.6268,-1.25405 -1.54217,-0.83562 -2.79216,-1.94459 -3.74977,-3.32978 -0.9576,-1.38566 -1.6557,-2.9459 -2.09389,-4.677208 -0.43773,-1.73154 -0.65632,-3.51459 -0.65632,-5.34948 0,-1.91521 0.21813,-3.76886 0.65632,-5.56209 0.43586,-1.79323 1.13198,-3.39247 2.08959,-4.79931 0.95783,-1.40544 2.20608,-2.52575 3.74545,-3.36138 1.53938,-0.83563 3.4121,-1.25405 5.61818,-1.25405 2.37132,0 4.39048,0.60969 6.05621,1.83008 1.66434,1.22016 2.78747,3.05111 3.37063,5.49026 h 9.36364 c -0.24947,-2.48081 -0.93688,-4.67685 -2.06086,-6.59205 -1.12352,-1.9138 -2.54966,-3.52439 -4.27683,-4.83091 -1.72764,-1.30651 -3.6614,-2.29754 -5.80488,-2.97209 -2.1428,-0.67363 -4.35801,-1.01129 -6.64647,-1.01129 z m 25.59348,1.10322 v 43.552898 h 31.50176 v -8.08599 H 238.98186 V 71.393232 Z m -159.2882,3.85841 c 2.71316,0 5.05001,0.51921 7.01268,1.55572 1.96104,1.03651 3.56798,2.40696 4.82113,4.11267 1.25128,1.70733 2.16996,3.62679 2.75451,5.76031 0.58457,2.13354 0.87749,4.29481 0.87749,6.48863 0,2.19382 -0.29292,4.35796 -0.87749,6.49149 -0.58455,2.133298 -1.503,4.052938 -2.75451,5.758878 -1.25291,1.70664 -2.86009,3.07736 -4.82113,4.11411 -1.96267,1.03627 -4.29928,1.55428 -7.01268,1.55428 -2.71456,0 -5.05164,-0.51801 -7.01268,-1.55428 -1.96267,-1.03675 -3.56938,-2.40747 -4.82112,-4.11411 -1.25268,-1.70594 -2.17116,-3.62558 -2.75596,-5.758878 -0.58457,-2.13353 -0.87461,-4.29767 -0.87461,-6.49149 0,-2.19382 0.29004,-4.35532 0.87461,-6.48863 0.5848,-2.13352 1.50305,-4.05298 2.75596,-5.76031 1.25174,-1.70548 2.85845,-3.07593 4.82112,-4.11267 1.96128,-1.03651 4.29812,-1.55572 7.01268,-1.55572 z m 39.3388,11.3023 c -1.97432,0 -3.78337,0.34816 -5.42863,1.04576 -1.64525,0.69783 -2.85062,1.81655 -3.61763,3.3542 h -0.0934 v -3.75498 h -4.70193 v 38.314028 h 4.7005 v -14.30743 h 0.0948 c 0.51126,0.82423 1.14086,1.51145 1.88996,2.06567 0.74909,0.55375 1.54534,0.9927 2.38543,1.31439 0.84031,0.32168 1.68998,0.55358 2.54915,0.69813 0.858,0.14246 1.63455,0.21404 2.32942,0.21404 2.15652,0 4.04783,-0.37647 5.67564,-1.12621 1.62616,-0.74927 2.97896,-1.77611 4.0571,-3.07983 1.07838,-1.30372 1.88093,-2.83274 2.41128,-4.58384 0.52895,-1.75156 0.79562,-3.60953 0.79562,-5.57501 0,-1.965228 -0.27488,-3.822478 -0.82291,-5.573578 -0.54942,-1.7504 -1.36186,-3.29602 -2.44,-4.63698 -1.07838,-1.33934 -2.42949,-2.40226 -4.05566,-3.18901 -1.62735,-0.78675 -3.53688,-1.17935 -5.72877,-1.17935 z m 28.73862,0 c -1.94359,0 -3.73052,0.35679 -5.36111,1.07162 -1.6306,0.71505 -3.04251,1.71432 -4.23375,3.00082 -1.19148,1.2865 -2.11656,2.80665 -2.77606,4.55798 -0.6609,1.7518 -0.99094,3.67992 -0.99094,5.787608 0.0735,2.10747 0.3939,4.05573 0.96078,5.8422 0.56711,1.78741 1.41951,3.32343 2.5549,4.60969 1.13562,1.2865 2.53622,2.28744 4.20358,3.00227 1.66573,0.71366 3.63584,1.07162 5.90685,1.07162 3.22327,0 5.89501,-0.78514 8.01942,-2.35584 2.12417,-1.57071 3.49732,-3.91029 4.12029,-7.01725 h -4.61289 c -0.40259,1.82628 -1.23279,3.18655 -2.49314,4.08106 -1.26036,0.89475 -2.87861,1.34025 -4.85129,1.34025 -1.53495,0 -2.86849,-0.24867 -4.00109,-0.74841 -1.13399,-0.49952 -2.06596,-1.16715 -2.7976,-2.00534 -0.73141,-0.83866 -1.25932,-1.80203 -1.58837,-2.89022 -0.32906,-1.08818 -0.47479,-2.2387 -0.43803,-3.45188 h 21.24628 c 0.0733,-1.68266 -0.0818,-3.454318 -0.46675,-5.316448 -0.3849,-1.86049 -1.08315,-3.57926 -2.09102,-5.15555 -1.00763,-1.57513 -2.34502,-2.87366 -4.01402,-3.89432 -1.66851,-1.01952 -3.76649,-1.52986 -6.29604,-1.52986 z m 29.75686,0 c -4.22904,0 -7.31845,1.68241 -9.26599,5.04494 h -0.0876 v -4.39996 h -4.42475 v 27.747208 h 4.70049 V 99.285542 c 0,-1.25206 0.17322,-2.40537 0.52276,-3.4605 0.34814,-1.05374 0.87102,-1.97419 1.56683,-2.76094 0.69627,-0.78675 1.56798,-1.39345 2.61378,-1.8229 1.04578,-0.42922 2.28362,-0.64499 3.71386,-0.64499 1.79675,0 3.2085,0.50168 4.23662,1.50257 1.0267,1.00206 1.54241,2.3596 1.54241,4.07532 v 18.772028 h 4.70049 V 96.698422 c 0,-1.50297 -0.15825,-2.87067 -0.46962,-4.10548 -0.31276,-1.2346 -0.85455,-2.29903 -1.62714,-3.19332 -0.7726,-0.89475 -1.78325,-1.59183 -3.03314,-2.09296 -1.25174,-0.50115 -2.81453,-0.75272 -4.68899,-0.75272 z m -30.03116,4.04227 c 1.16774,0 2.23596,0.20566 3.20403,0.61626 0.96691,0.41059 1.80644,0.9629 2.51899,1.65771 0.71093,0.6948 1.27651,1.52598 1.69608,2.48799 0.42051,0.96319 0.66728,1.97867 0.74105,3.04823 h -16.2643 c 0.0733,-1.06956 0.30998,-2.07613 0.71233,-3.02093 0.40119,-0.94457 0.94803,-1.77602 1.64151,-2.48943 0.69347,-0.71204 1.52363,-1.27298 2.49171,-1.68357 0.96667,-0.4106 2.05409,-0.61626 3.2586,-0.61626 z m -29.1508,0.001 c 1.49399,0 2.79711,0.28471 3.91062,0.85615 1.11212,0.57121 2.02468,1.33954 2.73584,2.30413 0.71093,0.96481 1.23733,2.06351 1.58407,3.2953 0.34651,1.2332 0.51941,2.49217 0.51988,3.777968 0,1.35796 -0.1457,2.67965 -0.43658,3.96615 -0.29229,1.28649 -0.76648,2.42819 -1.42179,3.42745 -0.65647,1.0009 -1.52406,1.80458 -2.59941,2.41187 -1.07535,0.60728 -2.41425,0.91073 -4.01834,0.91073 -1.60382,0 -2.97209,-0.29528 -4.10305,-0.88488 -1.13121,-0.58889 -2.05101,-1.36517 -2.7617,-2.32998 -0.71116,-0.96504 -1.23079,-2.08039 -1.55821,-3.34989 -0.32929,-1.26741 -0.4926,-2.57923 -0.4926,-3.93742 0,-1.284868 0.1539,-2.553628 0.46387,-3.803818 0.30997,-1.25065 0.81183,-2.36785 1.50508,-3.34989 0.69347,-0.98205 1.5854,-1.77584 2.67984,-2.38313 1.09304,-0.60729 2.42354,-0.91074 3.99248,-0.91074 z m 161.04028,16.249558 c -0.72745,0 -1.40677,0.18229 -2.03789,0.54587 -0.63111,0.36404 -1.12967,0.86226 -1.49502,1.49539 -0.36558,0.63335 -0.54717,1.31218 -0.54717,2.0398 0,0.73089 0.18159,1.41287 0.54717,2.04413 0.36535,0.63126 0.86391,1.12894 1.49502,1.49251 0.63112,0.36405 1.31044,0.54586 2.03789,0.54586 0.7307,0 1.41252,-0.18204 2.04363,-0.54586 0.6311,-0.36357 1.12823,-0.86125 1.49358,-1.49251 0.36535,-0.63126 0.54861,-1.31301 0.54861,-2.04413 0,-0.72762 -0.18326,-1.40645 -0.54861,-2.0398 -0.36535,-0.63313 -0.86248,-1.13135 -1.49358,-1.49539 -0.63111,-0.36382 -1.31269,-0.54586 -2.04363,-0.54587 z m 0,0.78576 c 0.90896,0 1.68551,0.3215 2.32942,0.96532 0.64344,0.64383 0.96508,1.42057 0.96508,2.32998 0,0.90942 -0.32164,1.68616 -0.96508,2.32999 -0.64391,0.6436 -1.42046,0.96532 -2.32942,0.96532 -0.90919,0 -1.68574,-0.32149 -2.32942,-0.96532 -0.64344,-0.64383 -0.96509,-1.42057 -0.96509,-2.32999 0,-0.90941 0.32142,-1.68615 0.96509,-2.32998 0.64368,-0.64359 1.42023,-0.96532 2.32942,-0.96532 z m -1.85118,1.11328 v 4.36549 h 1.08572 v -1.71804 c 0.0568,-0.0107 0.10144,-0.0158 0.13356,-0.0158 0.14265,0 0.28652,0.0822 0.42941,0.2442 0.1424,0.16224 0.42168,0.6589 0.8387,1.48964 h 1.28391 c -0.4638,-0.82725 -0.6996,-1.24847 -0.70658,-1.26267 -0.12124,-0.19623 -0.23701,-0.34379 -0.34755,-0.44388 -0.0784,-0.0712 -0.20153,-0.13973 -0.36908,-0.20398 0.40655,-0.0961 0.70431,-0.25151 0.89327,-0.46542 0.18896,-0.21415 0.28436,-0.46612 0.28436,-0.75847 0,-0.37475 -0.12435,-0.67361 -0.37196,-0.89637 -0.2476,-0.22299 -0.64816,-0.33469 -1.20061,-0.33469 z m 1.08572,0.7599 h 0.51414 c 0.29577,0 0.50592,0.0505 0.62903,0.15227 0.12287,0.10148 0.18382,0.23323 0.18382,0.3936 0,0.16061 -0.0643,0.29021 -0.19244,0.39216 -0.12846,0.10148 -0.34981,0.15227 -0.6635,0.15227 h -0.47105 z" /><path
       id="polygon1"
       style="fill:#990000;stroke:#ffffff;stroke-width:2;stroke-linecap:round;stroke-linejoin:round;stroke-dasharray:none;stroke-opacity:1;paint-order:stroke markers fill"
       d="M 111.79286,453.71974 C 61.64596,453.71974 21,477.27589 21,506.34838 21,535.42087 61.64615,559 111.76988,559 c 32.60476,0 61.15404,-10.54374 77.16675,-25.51061 -14.62232,8.93822 -36.54371,14.01296 -60.99149,14.01296 -44.05233,0 -79.73888,-18.41272 -79.73888,-41.15397 0,-6.68772 3.11347,-12.99805 8.60392,-18.58242 l 10.70644,40.74169 h 7.49235 l 10.54271,-37.42771 10.40198,37.42771 h 7.51676 l 12.96118,-47.64689 h -8.44739 l -8.44738,36.54427 -10.1923,-36.54427 h -7.72644 l -10.1923,36.54427 -8.12138,-35.13364 c 14.4868,-10.33887 38.03732,-17.07555 64.64073,-17.07555 24.54047,0 46.53145,5.19051 61.15377,14.17528 -15.94319,-15.05997 -44.58543,-25.6281 -77.30605,-25.65138 z m 87.78127,29.46813 c -3.36012,0 -6.34974,0.60563 -9.01467,1.79273 -2.66491,1.18711 -4.91342,2.81647 -6.74411,4.91136 -1.83069,2.07162 -3.22026,4.51537 -4.19353,7.33184 -0.97328,2.81647 -1.46056,5.84258 -1.46056,9.12458 0,3.18889 0.48728,6.16935 1.46056,8.93926 0.97327,2.76992 2.38582,5.16715 4.21651,7.21549 1.83068,2.04835 4.07919,3.65415 6.74412,4.81798 2.66492,1.16383 5.67771,1.74534 9.01466,1.74534 2.10876,0 4.19322,-0.44137 6.2788,-1.32589 2.0856,-0.8845 3.98686,-2.4214 5.67851,-4.63267 l 0.97227,4.95732 h 6.09498 v -23.6719 h -18.28351 v 7.23991 h 9.63938 c -0.30126,3.07251 -1.29658,5.39967 -3.03457,7.00575 -1.73799,1.60609 -4.19411,2.42049 -7.36884,2.42049 -2.15511,0 -3.98698,-0.41897 -5.49324,-1.25693 -1.50626,-0.83796 -2.7338,-1.95473 -3.66073,-3.35133 -0.92693,-1.3966 -1.6222,-2.95588 -2.03931,-4.70162 -0.4403,-1.74575 -0.64915,-3.53937 -0.64915,-5.37822 0,-1.93196 0.23202,-3.79277 0.64915,-5.58507 0.41711,-1.7923 1.11238,-3.39954 2.03931,-4.81942 0.92693,-1.41987 2.15447,-2.53636 3.66073,-3.37431 1.50626,-0.83796 3.33813,-1.25693 5.49324,-1.25693 2.34049,0 4.30914,0.60505 5.93126,1.83871 1.62213,1.23366 2.71231,3.07207 3.29164,5.51612 h 9.12954 c -0.2549,-2.4906 -0.92719,-4.70175 -2.01633,-6.63371 -1.08914,-1.93196 -2.47891,-3.56189 -4.17056,-4.86539 -1.69164,-1.30349 -3.59148,-2.30425 -5.67706,-2.97928 -2.0856,-0.67501 -4.24069,-1.02421 -6.48849,-1.02421 z m 25.0262,1.0946 v 43.75976 h 30.82102 v -8.12334 h -21.25058 v -35.63642 z m -79.82362,0.90786 v 43.29434 h 5.88675 v -2.9563 c 0.51196,0.67503 1.18662,1.39698 2.07092,2.02545 1.67551,1.21039 3.7469,1.81573 6.14381,1.81573 2.58308,0 4.91,-0.5818 6.86476,-1.72236 1.74532,-1.02416 3.23535,-2.49043 4.3989,-4.35256 1.02392,-1.62936 1.7916,-3.56111 2.30357,-5.72584 0.44214,-1.86213 0.67498,-3.9108 0.67498,-5.91259 0.0233,-2.16472 -0.27962,-4.2596 -0.88466,-6.16828 -0.60505,-1.93196 -1.48929,-3.63226 -2.62958,-5.05213 -1.18681,-1.46642 -2.62889,-2.60589 -4.28113,-3.3973 -1.72205,-0.81468 -3.65448,-1.23394 -5.74887,-1.23394 -1.93149,0.0233 -3.67588,0.44224 -5.21176,1.25693 -1.27991,0.65174 -2.42053,1.58273 -3.39791,2.74656 v -14.61771 z m -17.71049,10.6372 c -2.5598,0 -4.86345,0.4655 -6.86475,1.37329 -1.88496,0.86123 -3.49067,2.14113 -4.79384,3.79376 -2.39692,3.04924 -3.65355,7.35535 -3.65355,12.45292 0,2.25784 0.32672,4.40038 0.95504,6.30907 0.62832,1.93195 1.58176,3.63081 2.79185,5.05068 2.55981,2.97941 6.21403,4.5623 10.5657,4.5623 2.28055,0 4.14232,-0.23231 5.70148,-0.72112 1.34972,-0.41898 2.25686,-0.97785 3.00154,-1.46666 0.9541,-0.62847 1.81537,-1.39663 2.60659,-2.28114 0.65159,-0.76813 1.23295,-1.60607 1.74491,-2.51386 0.8843,-1.62936 1.32582,-3.16612 1.41891,-3.95752 l 0.0704,-0.53582 h -6.21275 l -0.0244,0.44245 c -0.1629,2.02506 -2.81574,5.6339 -7.53974,5.6339 -6.74859,0 -8.35401,-4.88878 -8.47036,-9.19496 h 22.61922 v -0.4884 c 0,-2.76993 -0.27876,-5.30731 -0.83727,-7.51859 -0.62831,-2.30438 -1.4893,-4.25939 -2.62958,-5.8422 -1.16354,-1.65264 -2.62944,-2.90955 -4.35151,-3.77078 -1.76859,-0.88451 -3.81729,-1.32732 -6.09785,-1.32732 z m -0.72094,5.5865 c 5.00326,0 7.68008,2.69987 8.16877,8.23971 h -16.1968 c 0.25598,-4.49239 3.81598,-8.23971 8.02803,-8.23971 z m 32.30025,0.0229 c 3.35103,0 5.60813,1.30456 6.86476,4.02791 1.02393,2.23456 1.16327,4.95683 1.16327,7.05173 0,3.39839 -0.67439,6.23791 -1.97756,8.2397 -1.37299,2.11817 -3.37433,3.18901 -5.93413,3.18901 -3.70009,0 -8.02804,-2.58281 -8.02804,-9.89166 0,-3.4915 0.44126,-6.19137 1.32556,-8.23971 1.27991,-2.95612 3.44456,-4.37698 6.58614,-4.37698 z m 100.46097,20.90235 v 1.28135 h 1.86123 v 4.4445 h 1.39736 v -4.4445 h 1.86124 v -1.28135 z m 5.58515,0 v 5.72585 h 1.39594 v -4.35257 l 1.39591,4.35257 h 1.16472 l 1.16327,-4.35257 v 4.35257 h 1.39593 v -5.72585 h -2.32654 l -0.93205,3.81819 -0.93063,-3.81819 z" /><path
       style="fill:none;fill-opacity:1;stroke:#ffffff;stroke-width:1;stroke-linecap:butt;stroke-linejoin:round;stroke-miterlimit:3.3;stroke-dasharray:none;stroke-opacity:0.380016;paint-order:stroke markers fill"
       d="m 387.72305,18.372231 0,43.38483"
       id="path35"
       sodipodi:nodetypes="cc" /><path
       style="fill:none;fill-opacity:1;stroke:#ffffff;stroke-width:1;stroke-linecap:butt;stroke-linejoin:round;stroke-miterlimit:3.3;stroke-dasharray:none;stroke-opacity:0.380016;paint-order:stroke markers fill"
       d="M 437.86536,18.372231 V 581.35986"
       id="path45" /><path
       style="fill:none;fill-opacity:1;stroke:#ffffff;stroke-width:1;stroke-linecap:butt;stroke-linejoin:round;stroke-miterlimit:3.3;stroke-dasharray:none;stroke-opacity:0.380016;paint-order:stroke markers fill"
       d="m 488.00767,331.34727 0,250.01259"
       id="path46"
       sodipodi:nodetypes="cc" /><path
       style="fill:none;fill-opacity:1;stroke:#ffffff;stroke-width:1;stroke-linecap:butt;stroke-linejoin:round;stroke-miterlimit:3.3;stroke-dasharray:none;stroke-opacity:0.380016;paint-order:stroke markers fill"
       d="m 538.14998,18.372231 0,43.38483"
       id="path47"
       sodipodi:nodetypes="cc" /><path
       style="fill:none;fill-opacity:1;stroke:#ffffff;stroke-width:1;stroke-linecap:butt;stroke-linejoin:round;stroke-miterlimit:3.3;stroke-dasharray:none;stroke-opacity:0.380016;paint-order:stroke markers fill"
       d="M 588.29229,18.372231 V 581.35986"
       id="path48" /><path
       style="fill:none;fill-opacity:1;stroke:#ffffff;stroke-width:1;stroke-linecap:butt;stroke-linejoin:round;stroke-miterlimit:3.3;stroke-dasharray:none;stroke-opacity:0.380016;paint-order:stroke markers fill"
       d="M 638.4346,18.372231 V 581.35986"
       id="path49" /><path
       style="fill:none;fill-opacity:1;stroke:#ffffff;stroke-width:1;stroke-linecap:butt;stroke-linejoin:round;stroke-miterlimit:3.3;stroke-dasharray:none;stroke-opacity:0.380016;paint-order:stroke markers fill"
       d="m 688.57691,18.372231 0,249.744709"
       id="path50"
       sodipodi:nodetypes="cc" /><path
       style="fill:none;fill-opacity:1;stroke:#ffffff;stroke-width:1;stroke-linecap:butt;stroke-linejoin:round;stroke-miterlimit:3.3;stroke-dasharray:none;stroke-opacity:0.380016;paint-order:stroke markers fill"
       d="M 738.71922,18.372231 V 581.35986"
       id="path51" /><path
       style="fill:none;fill-opacity:1;stroke:#ffffff;stroke-width:1;stroke-linecap:butt;stroke-linejoin:round;stroke-miterlimit:3.3;stroke-dasharray:none;stroke-opacity:0.380016;paint-order:stroke markers fill"
       d="m 788.86152,18.372231 0,43.38483"
       id="path52"
       sodipodi:nodetypes="cc" /><path
       style="fill:none;fill-opacity:1;stroke:#ffffff;stroke-width:1;stroke-linecap:butt;stroke-linejoin:round;stroke-miterlimit:3.3;stroke-dasharray:none;stroke-opacity:0.380016;paint-order:stroke markers fill"
       d="M 839.00383,18.372231 V 581.35987"
       id="path53" /><path
       style="fill:none;fill-opacity:1;stroke:#ffffff;stroke-width:1;stroke-linecap:butt;stroke-linejoin:round;stroke-miterlimit:3.3;stroke-dasharray:none;stroke-opacity:0.380016;paint-order:stroke markers fill"
       d="M 889.14614,18.372231 V 581.35987"
       id="path54" /><path
       style="fill:none;fill-opacity:1;stroke:#ffffff;stroke-width:1;stroke-linecap:butt;stroke-linejoin:round;stroke-miterlimit:3.3;stroke-dasharray:none;stroke-opacity:0.380016;paint-order:stroke markers fill"
       d="m 939.28845,537.97504 0,43.38483"
       id="path55"
       sodipodi:nodetypes="cc" /><path
       style="fill:none;fill-opacity:1;stroke:#ffffff;stroke-width:1;stroke-linecap:butt;stroke-linejoin:round;stroke-miterlimit:3.3;stroke-dasharray:none;stroke-opacity:0.380016;paint-order:stroke markers fill"
       d="M 989.43076,18.372231 V 581.35987"
       id="path56" /><path
       style="fill:none;fill-opacity:1;stroke:#ffffff;stroke-width:1;stroke-linecap:butt;stroke-linejoin:round;stroke-miterlimit:3.3;stroke-dasharray:none;stroke-opacity:0.380016;paint-order:stroke markers fill"
       d="m 1039.5731,18.372231 0,43.38483"
       id="path57"
       sodipodi:nodetypes="cc" /><path
       style="fill:none;fill-opacity:1;stroke:#ffffff;stroke-width:1;stroke-linecap:butt;stroke-linejoin:round;stroke-miterlimit:3.3;stroke-dasharray:none;stroke-opacity:0.380016;paint-order:stroke markers fill"
       d="m 1089.7154,331.34727 0,250.01261"
       id="path58"
       sodipodi:nodetypes="cc" /><path
       style="fill:none;fill-opacity:1;stroke:#ffffff;stroke-width:1;stroke-linecap:butt;stroke-linejoin:round;stroke-miterlimit:3.3;stroke-dasharray:none;stroke-opacity:0.380016;paint-order:stroke markers fill"
       d="M 1139.8577,18.372231 V 581.35988"
       id="path59" /><path
       style="fill:none;fill-opacity:1;stroke:#ffffff;stroke-width:1;stroke-linecap:butt;stroke-linejoin:round;stroke-miterlimit:3.3;stroke-dasharray:none;stroke-opacity:0.380016;paint-order:stroke markers fill"
       d="m 1190,537.97504 v 43.38484"
       id="path61"
       sodipodi:nodetypes="cc" /><path
       style="fill:none;fill-opacity:1;stroke:#ffffff;stroke-width:1;stroke-linecap:butt;stroke-linejoin:round;stroke-miterlimit:3.3;stroke-dasharray:none;stroke-opacity:0.380016;paint-order:stroke markers fill"
       d="m 387.72305,124.9874 0,456.37246"
       id="path62"
       sodipodi:nodetypes="cc" /><path
       style="fill:none;fill-opacity:1;stroke:#ffffff;stroke-width:1;stroke-linecap:butt;stroke-linejoin:round;stroke-miterlimit:3.3;stroke-dasharray:none;stroke-opacity:0.380016;paint-order:stroke markers fill"
       d="m 488.00767,18.372231 0,249.744709"
       id="path63"
       sodipodi:nodetypes="cc" /><path
       style="fill:none;fill-opacity:1;stroke:#ffffff;stroke-width:1;stroke-linecap:butt;stroke-linejoin:round;stroke-miterlimit:3.3;stroke-dasharray:none;stroke-opacity:0.380016;paint-order:stroke markers fill"
       d="m 538.14998,124.9874 0,456.37246"
       id="path64"
       sodipodi:nodetypes="cc" /><path
       style="fill:none;fill-opacity:1;stroke:#ffffff;stroke-width:1;stroke-linecap:butt;stroke-linejoin:round;stroke-miterlimit:3.3;stroke-dasharray:none;stroke-opacity:0.380016;paint-order:stroke markers fill"
       d="m 688.57691,331.34727 0,250.01259"
       id="path65"
       sodipodi:nodetypes="cc" /><path
       style="fill:none;fill-opacity:1;stroke:#ffffff;stroke-width:1;stroke-linecap:butt;stroke-linejoin:round;stroke-miterlimit:3.3;stroke-dasharray:none;stroke-opacity:0.380016;paint-order:stroke markers fill"
       d="m 788.86152,124.9874 0,456.37246"
       id="path66"
       sodipodi:nodetypes="cc" /><path
       style="fill:none;fill-opacity:1;stroke:#ffffff;stroke-width:1;stroke-linecap:butt;stroke-linejoin:round;stroke-miterlimit:3.3;stroke-dasharray:none;stroke-opacity:0.380016;paint-order:stroke markers fill"
       d="m 939.28845,18.372231 0,249.744709"
       id="path67"
       sodipodi:nodetypes="cc" /><path
       style="fill:none;fill-opacity:1;stroke:#ffffff;stroke-width:1;stroke-linecap:butt;stroke-linejoin:round;stroke-miterlimit:3.3;stroke-dasharray:none;stroke-opacity:0.380016;paint-order:stroke markers fill"
       d="m 939.28845,331.34727 0,143.39743"
       id="path68"
       sodipodi:nodetypes="cc" /><path
       style="fill:none;fill-opacity:1;stroke:#ffffff;stroke-width:1;stroke-linecap:butt;stroke-linejoin:round;stroke-miterlimit:3.3;stroke-dasharray:none;stroke-opacity:0.380016;paint-order:stroke markers fill"
       d="m 1039.5731,124.9874 0,456.37247"
       id="path69"
       sodipodi:nodetypes="cc" /><path
       style="fill:none;fill-opacity:1;stroke:#ffffff;stroke-width:1;stroke-linecap:butt;stroke-linejoin:round;stroke-miterlimit:3.3;stroke-dasharray:none;stroke-opacity:0.380016;paint-order:stroke markers fill"
       d="m 1089.7154,18.372231 0,249.744709"
       id="path70"
       sodipodi:nodetypes="cc" /><path
       style="fill:none;fill-opacity:1;stroke:#ffffff;stroke-width:1;stroke-linecap:butt;stroke-linejoin:round;stroke-miterlimit:3.3;stroke-dasharray:none;stroke-opacity:0.380016;paint-order:stroke markers fill"
       d="M 1190,18.372231 V 474.7447"
       id="path71"
       sodipodi:nodetypes="cc" /></g><g
     inkscape:groupmode="layer"
     id="layer3"
     inkscape:label="Nodes"
     style="display:inline"><path
       style="display:inline;fill:none;fill-rule:evenodd;stroke:#ffffff;stroke-width:1px;stroke-linecap:butt;stroke-linejoin:miter;stroke-miterlimit:3.3;stroke-opacity:1;marker-end:url(#RoundedArrow)"
       d="m 410.55736,124.9874 60.90699,135.12954"
       id="path17"
       inkscape:connector-type="polyline"
       inkscape:connector-curvature="0"
       sodipodi:nodetypes="cc" /><g
       id="g39"
       transform="translate(-22.206277,-3.5842364)"
       style="display:inline"><text
         xml:space="preserve"
         style="font-style:normal;font-variant:normal;font-weight:normal;font-stretch:normal;font-size:21.3333px;font-family:'Noto Sans';-inkscape-font-specification:'Noto Sans';text-align:center;text-anchor:middle;fill:#000000;fill-opacity:0.25;stroke:none;stroke-width:2;stroke-linecap:round;stroke-linejoin:round;stroke-dasharray:none;stroke-opacity:1;paint-order:stroke markers fill"
         x="509.79929"
         y="297.56702"
         id="text12"><tspan
           sodipodi:role="line"
           id="tspan12"
           x="509.79929"
           y="297.56702"
           style="fill:#ffffff;fill-opacity:1">1.0</tspan><tspan
           sodipodi:role="line"
           x="509.79929"
           y="324.23364"
           style="fill:#ffffff;fill-opacity:1"
           id="tspan13">07.03</tspan></text><rect
         style="fill:none;fill-opacity:1;stroke:#ffffff;stroke-width:2;stroke-linecap:round;stroke-linejoin:round;stroke-dasharray:none;stroke-opacity:0.5;paint-order:stroke markers fill"
         id="rect17"
         width="86.300026"
         height="63.230339"
         x="466.56393"
         y="271.70117"
         ry="5"
         rx="5" /></g><g
       id="g35"
       transform="translate(-99.917564,16.784306)"
       style="display:inline"><text
         xml:space="preserve"
         style="font-style:normal;font-variant:normal;font-weight:normal;font-stretch:normal;font-size:21.3333px;font-family:'Noto Sans';-inkscape-font-specification:'Noto Sans';text-align:center;text-anchor:middle;fill:#000000;fill-opacity:0.25;stroke:none;stroke-width:2;stroke-linecap:round;stroke-linejoin:round;stroke-dasharray:none;stroke-opacity:1;paint-order:stroke markers fill"
         x="489.93262"
         y="70.827934"
         id="text15"><tspan
           sodipodi:role="line"
           x="489.93262"
           y="70.827934"
           style="fill:#ffffff;fill-opacity:1"
           id="tspan15">1.3</tspan><tspan
           sodipodi:role="line"
           x="489.93262"
           y="97.49456"
           style="fill:#ffffff;fill-opacity:1"
           id="tspan35">08.01</tspan></text><rect
         style="fill:none;fill-opacity:1;stroke:#ffffff;stroke-width:2;stroke-linecap:round;stroke-linejoin:round;stroke-dasharray:none;stroke-opacity:0.5;paint-order:stroke markers fill"
         id="rect18"
         width="86.300026"
         height="63.230339"
         x="444.9906"
         y="44.972755"
         ry="5"
         rx="5" /></g><g
       id="g36"
       transform="translate(-70.490645,16.784306)"
       style="display:inline"><text
         xml:space="preserve"
         style="font-style:normal;font-variant:normal;font-weight:normal;font-stretch:normal;font-size:21.3333px;font-family:'Noto Sans';-inkscape-font-specification:'Noto Sans';text-align:center;text-anchor:middle;fill:#000000;fill-opacity:0.25;stroke:none;stroke-width:2;stroke-linecap:round;stroke-linejoin:round;stroke-dasharray:none;stroke-opacity:1;paint-order:stroke markers fill"
         x="607.8313"
         y="70.8386"
         id="text18"><tspan
           sodipodi:role="line"
           x="607.8313"
           y="70.8386"
           style="fill:#ffffff;fill-opacity:1"
           id="tspan18">2.0</tspan><tspan
           sodipodi:role="line"
           x="607.8313"
           y="97.505226"
           style="fill:#ffffff;fill-opacity:1"
           id="tspan28">09.04</tspan></text><rect
         style="fill:none;fill-opacity:1;stroke:#ffffff;stroke-width:2;stroke-linecap:round;stroke-linejoin:round;stroke-dasharray:none;stroke-opacity:0.5;paint-order:stroke markers fill"
         id="rect19"
         width="86.300026"
         height="63.230339"
         x="564.9906"
         y="44.972755"
         ry="5"
         rx="5" /></g><g
       id="g40"
       transform="translate(-15.173151,-3.5842364)"
       style="display:inline"><text
         xml:space="preserve"
         style="font-style:normal;font-variant:normal;font-weight:normal;font-stretch:normal;font-size:21.3333px;font-family:'Noto Sans';-inkscape-font-specification:'Noto Sans';text-align:center;text-anchor:middle;fill:#000000;fill-opacity:0.25;stroke:none;stroke-width:2;stroke-linecap:round;stroke-linejoin:round;stroke-dasharray:none;stroke-opacity:1;paint-order:stroke markers fill"
         x="703.25006"
         y="297.56702"
         id="text17"><tspan
           sodipodi:role="line"
           id="tspan16"
           x="703.25006"
           y="297.56702"
           style="fill:#ffffff;fill-opacity:1">2.0</tspan><tspan
           sodipodi:role="line"
           x="703.25006"
           y="324.23364"
           style="fill:#ffffff;fill-opacity:1"
           id="tspan17">03.07</tspan></text><rect
         style="fill:none;fill-opacity:1;stroke:#ffffff;stroke-width:2;stroke-linecap:round;stroke-linejoin:round;stroke-dasharray:none;stroke-opacity:0.5;paint-order:stroke markers fill"
         id="rect20"
         width="86.300026"
         height="63.230339"
         x="660.10004"
         y="271.70117"
         ry="5"
         rx="5" /></g><path
       style="display:inline;fill:none;fill-rule:evenodd;stroke:#ffffff;stroke-width:1px;stroke-linecap:butt;stroke-linejoin:miter;stroke-miterlimit:3.3;stroke-opacity:1;marker-end:url(#RoundedArrow)"
       d="M 559.02301,124.9874 665.13043,260.11694"
       id="path20"
       inkscape:connector-type="polyline"
       inkscape:connector-curvature="0"
       sodipodi:nodetypes="cc" /><g
       id="g41"
       transform="translate(15.538389,-3.5842364)"
       style="display:inline"><text
         xml:space="preserve"
         style="font-style:normal;font-variant:normal;font-weight:normal;font-stretch:normal;font-size:21.3333px;font-family:'Noto Sans';-inkscape-font-specification:'Noto Sans';text-align:center;text-anchor:middle;fill:#000000;fill-opacity:0.25;stroke:none;stroke-width:2;stroke-linecap:round;stroke-linejoin:round;stroke-dasharray:none;stroke-opacity:1;paint-order:stroke markers fill"
         x="923.28204"
         y="297.56702"
         id="text21"><tspan
           sodipodi:role="line"
           id="tspan20"
           x="923.28204"
           y="297.56702"
           style="fill:#ffffff;fill-opacity:1">3.0</tspan><tspan
           sodipodi:role="line"
           x="923.28204"
           y="324.23364"
           style="fill:#ffffff;fill-opacity:1"
           id="tspan21">08.12</tspan></text><rect
         style="fill:none;fill-opacity:1;stroke:#ffffff;stroke-width:2;stroke-linecap:round;stroke-linejoin:round;stroke-dasharray:none;stroke-opacity:0.5;paint-order:stroke markers fill"
         id="rect21"
         width="86.300026"
         height="63.230339"
         x="880.10004"
         y="271.70117"
         ry="5"
         rx="5" /></g><g
       id="g44"
       transform="translate(16.5384,3.0435286)"
       style="display:inline"><text
         xml:space="preserve"
         style="font-style:normal;font-variant:normal;font-weight:normal;font-stretch:normal;font-size:21.3333px;font-family:'Noto Sans';-inkscape-font-specification:'Noto Sans';text-align:center;text-anchor:middle;fill:#000000;fill-opacity:0.25;stroke:none;stroke-width:2;stroke-linecap:round;stroke-linejoin:round;stroke-dasharray:none;stroke-opacity:1;paint-order:stroke markers fill"
         x="923.28204"
         y="497.56702"
         id="text23"><tspan
           sodipodi:role="line"
           id="tspan22"
           x="923.28204"
           y="497.56702"
           style="fill:#ffffff;fill-opacity:1">1.0</tspan><tspan
           sodipodi:role="line"
           x="923.28204"
           y="524.23364"
           style="fill:#ffffff;fill-opacity:1"
           id="tspan23">08.12</tspan></text><rect
         style="fill:none;fill-opacity:1;stroke:#ffffff;stroke-width:2;stroke-linecap:round;stroke-linejoin:round;stroke-dasharray:none;stroke-opacity:0.5;paint-order:stroke markers fill"
         id="rect23"
         width="86.300026"
         height="63.230339"
         x="880.10004"
         y="471.70117"
         ry="5"
         rx="5" /></g><g
       id="g43"
       transform="translate(-34.0346,-3.5842364)"
       style="display:inline"><text
         xml:space="preserve"
         style="font-style:normal;font-variant:normal;font-weight:normal;font-stretch:normal;font-size:21.3333px;font-family:'Noto Sans';-inkscape-font-specification:'Noto Sans';text-align:center;text-anchor:middle;fill:#000000;fill-opacity:0.25;stroke:none;stroke-width:2;stroke-linecap:round;stroke-linejoin:round;stroke-dasharray:none;stroke-opacity:1;paint-order:stroke markers fill"
         x="1123.3353"
         y="297.55634"
         id="text27"><tspan
           sodipodi:role="line"
           id="tspan26"
           x="1123.3353"
           y="297.55634"
           style="fill:#ffffff;fill-opacity:1">3.2</tspan><tspan
           sodipodi:role="line"
           x="1123.3353"
           y="324.22296"
           style="fill:#ffffff;fill-opacity:1"
           id="tspan27">08.15</tspan></text><rect
         style="fill:none;fill-opacity:1;stroke:#ffffff;stroke-width:2;stroke-linecap:round;stroke-linejoin:round;stroke-dasharray:none;stroke-opacity:0.5;paint-order:stroke markers fill"
         id="rect27"
         width="86.300026"
         height="63.230339"
         x="1080.1"
         y="271.70117"
         ry="5"
         rx="5" /></g><g
       id="g37"
       transform="translate(0.220895,16.784306)"
       style="display:inline"><text
         xml:space="preserve"
         style="font-style:normal;font-variant:normal;font-weight:normal;font-stretch:normal;font-size:21.3333px;font-family:'Noto Sans';-inkscape-font-specification:'Noto Sans';text-align:center;text-anchor:middle;fill:#000000;fill-opacity:0.25;stroke:none;stroke-width:2;stroke-linecap:round;stroke-linejoin:round;stroke-dasharray:none;stroke-opacity:1;paint-order:stroke markers fill"
         x="788.17261"
         y="70.827934"
         id="text30"><tspan
           sodipodi:role="line"
           x="788.17261"
           y="70.827934"
           style="fill:#ffffff;fill-opacity:1"
           id="tspan29">3.2</tspan><tspan
           sodipodi:role="line"
           x="788.17261"
           y="97.49456"
           style="fill:#ffffff;fill-opacity:1"
           id="tspan30">08.09</tspan></text><rect
         style="fill:none;fill-opacity:1;stroke:#ffffff;stroke-width:2;stroke-linecap:round;stroke-linejoin:round;stroke-dasharray:none;stroke-opacity:0.5;paint-order:stroke markers fill"
         id="rect30"
         width="86.300026"
         height="63.230339"
         x="744.9906"
         y="44.972755"
         ry="5"
         rx="5" /></g><path
       style="display:inline;fill:none;fill-rule:evenodd;stroke:#ffffff;stroke-width:1px;stroke-linecap:butt;stroke-linejoin:miter;stroke-miterlimit:3.3;stroke-opacity:1;marker-end:url(#RoundedArrow)"
       d="M 810.27148,124.9874 915.56582,260.11694"
       id="path30"
       inkscape:connector-type="polyline"
       inkscape:connector-curvature="0"
       sodipodi:nodetypes="cc" /><g
       id="g38"
       transform="translate(90.932475,16.784306)"
       style="display:inline"><text
         xml:space="preserve"
         style="font-style:normal;font-variant:normal;font-weight:normal;font-stretch:normal;font-size:21.3333px;font-family:'Noto Sans';-inkscape-font-specification:'Noto Sans';text-align:center;text-anchor:middle;fill:#000000;fill-opacity:0.25;stroke:none;stroke-width:2;stroke-linecap:round;stroke-linejoin:round;stroke-dasharray:none;stroke-opacity:1;paint-order:stroke markers fill"
         x="947.8313"
         y="70.763931"
         id="text32"><tspan
           sodipodi:role="line"
           x="947.8313"
           y="70.763931"
           style="fill:#ffffff;fill-opacity:1"
           id="tspan31">4.5</tspan><tspan
           sodipodi:role="line"
           x="947.8313"
           y="97.430557"
           style="fill:#ffffff;fill-opacity:1"
           id="tspan32">08.14</tspan></text><rect
         style="fill:none;fill-opacity:1;stroke:#ffffff;stroke-width:2;stroke-linecap:round;stroke-linejoin:round;stroke-dasharray:none;stroke-opacity:0.5;paint-order:stroke markers fill"
         id="rect32"
         width="86.300026"
         height="63.230339"
         x="904.9906"
         y="44.972755"
         ry="5"
         rx="5" /></g><path
       style="display:inline;fill:none;fill-rule:evenodd;stroke:#ffffff;stroke-width:1px;stroke-linecap:butt;stroke-linejoin:miter;stroke-miterlimit:3.3;stroke-opacity:1;marker-end:url(#RoundedArrow)"
       d="m 1045.8073,124.9874 35.2383,135.12954"
       id="path32"
       inkscape:connector-type="polyline"
       inkscape:connector-curvature="0"
       sodipodi:nodetypes="cc" /><path
       style="display:inline;fill:none;fill-rule:evenodd;stroke:#ffffff;stroke-width:1px;stroke-linecap:butt;stroke-linejoin:miter;stroke-miterlimit:3.3;stroke-opacity:1;marker-end:url(#RoundedArrow)"
       d="M 715.34712,331.34727 903.79734,466.7447"
       id="path33"
       inkscape:connector-type="polyline"
       inkscape:connector-curvature="0"
       sodipodi:nodetypes="cc" /><g
       id="g45"
       transform="translate(86.25,3.0435286)"
       style="display:inline"><text
         xml:space="preserve"
         style="font-style:normal;font-variant:normal;font-weight:normal;font-stretch:normal;font-size:21.3333px;font-family:'Noto Sans';-inkscape-font-specification:'Noto Sans';text-align:center;text-anchor:middle;fill:#000000;fill-opacity:0.25;stroke:none;stroke-width:2;stroke-linecap:round;stroke-linejoin:round;stroke-dasharray:none;stroke-opacity:1;paint-order:stroke markers fill"
         x="1103.25"
         y="497.56702"
         id="text34"><tspan
           sodipodi:role="line"
           id="tspan33"
           x="1103.25"
           y="497.56702"
           style="fill:#ffffff;fill-opacity:1">2.0</tspan><tspan
           sodipodi:role="line"
           x="1103.25"
           y="524.23364"
           style="fill:#ffffff;fill-opacity:1"
           id="tspan34">01.17</tspan></text><rect
         style="fill:none;fill-opacity:1;stroke:#ffffff;stroke-width:2;stroke-linecap:round;stroke-linejoin:round;stroke-dasharray:none;stroke-opacity:0.5;paint-order:stroke markers fill"
         id="rect34"
         width="86.300026"
         height="63.230339"
         x="1060.1"
         y="471.70117"
         ry="5"
         rx="5" /></g><path
       style="display:inline;fill:none;fill-rule:evenodd;stroke:#ffffff;stroke-width:1px;stroke-linecap:butt;stroke-linejoin:miter;stroke-miterlimit:3.3;stroke-opacity:1;marker-end:url(#RoundedArrow)"
       d="M 961.8293,331.34727 1167.2569,466.7447"
       id="path34"
       inkscape:connector-type="polyline"
       inkscape:connector-curvature="0"
       sodipodi:nodetypes="cc" /></g></svg>
