<?xml version="1.0" encoding="UTF-8" standalone="no"?>
<!-- Created with Inkscape (http://www.inkscape.org/) -->

<svg
   width="793.70081"
   height="1122.5197"
   viewBox="0 0 210 296.99999"
   version="1.1"
   id="svg1"
   inkscape:version="1.3.2 (9e3d6414e7, 2024-01-14, custom)"
   sodipodi:docname="framebuffer.svg"
   xmlns:inkscape="http://www.inkscape.org/namespaces/inkscape"
   xmlns:sodipodi="http://sodipodi.sourceforge.net/DTD/sodipodi-0.dtd"
   xmlns="http://www.w3.org/2000/svg"
   xmlns:svg="http://www.w3.org/2000/svg">
  <sodipodi:namedview
     id="namedview1"
     pagecolor="#191919"
     bordercolor="#000000"
     borderopacity="0.25"
     inkscape:showpageshadow="2"
     inkscape:pageopacity="0.0"
     inkscape:pagecheckerboard="0"
     inkscape:deskcolor="#191919"
     inkscape:document-units="px"
     showborder="true"
     labelstyle="default"
     showgrid="true"
     inkscape:zoom="1.1603467"
     inkscape:cx="432.19843"
     inkscape:cy="249.92531"
     inkscape:window-width="1920"
     inkscape:window-height="1011"
     inkscape:window-x="0"
     inkscape:window-y="0"
     inkscape:window-maximized="1"
     inkscape:current-layer="layer1">
    <inkscape:grid
       id="grid4"
       units="px"
       originx="0"
       originy="0"
       spacingx="0.26458333"
       spacingy="0.26458334"
       empcolor="#0099e5"
       empopacity="0.30196078"
       color="#0099e5"
       opacity="0.14901961"
       empspacing="5"
       dotted="false"
       gridanglex="30"
       gridanglez="30"
       visible="true" />
  </sodipodi:namedview>
  <defs
     id="defs1" />
  <g
     inkscape:label="Layer 1"
     inkscape:groupmode="layer"
     id="layer1">
    <path
       id="path4"
       style="fill:#104b0c;stroke:#66e55d;stroke-opacity:1;fill-opacity:0.32471251"
       d="m 76.729168,35.718751 141.552102,1.322917 c 2.17919,0.02037 3.96875,1.789458 3.96875,3.96875 v 46.302087 c 0,2.179295 -1.75453,3.953563 -3.93374,3.93374 L 76.729168,89.958338 c -2.179201,-0.01982 -4.556163,-1.649543 -4.556256,-3.828834 l -0.002,-46.201264 c -1.02e-4,-2.389436 2.679179,-4.227051 4.558256,-4.209489 z"
       sodipodi:nodetypes="sssssssss" />
    <path
       id="rect1-8"
       style="fill:#580e0e;stroke:#e55d5d;stroke-opacity:1;fill-opacity:1"
       d="M 3.6764178,40.42824 H 60.854169 c 2.17929,0 3.93374,1.754448 3.93374,3.933739 v 28.433452 c 0,2.179292 -1.75445,3.93374 -3.93374,3.93374 H 3.6764178 c -2.179292,0 -3.93373959,-1.754448 -3.93373959,-3.93374 V 44.361979 c 0,-2.179291 1.75444759,-3.933739 3.93373959,-3.933739 z"
       sodipodi:nodetypes="sssssssss" />
    <text
       xml:space="preserve"
       style="font-weight:bold;font-size:8.37249px;font-family:'Noto Sans';-inkscape-font-specification:'Noto Sans Bold';fill:#ff3d3d;fill-opacity:1;stroke:none;stroke-width:0.53737;stroke-dasharray:none;stroke-opacity:1"
       x="2.688787"
       y="50.764687"
       id="text1-9"><tspan
         sodipodi:role="line"
         id="tspan1-5"
         style="fill:#ff3d3d;fill-opacity:1;stroke:none;stroke-width:0.53737;stroke-opacity:1"
         x="2.688787"
         y="50.764687">Color </tspan></text>
    <path
       id="rect1-8-5"
       style="fill:#51580e;stroke:#d9e55d;stroke-opacity:1;fill-opacity:1"
       d="m 81.328294,39.792405 h 57.177776 c 2.17929,0 3.93374,1.754447 3.93374,3.93374 v 28.433452 c 0,2.179292 -1.75445,3.93374 -3.93374,3.93374 H 81.328294 c -2.179292,0 -3.93374,-1.754448 -3.93374,-3.93374 V 43.726145 c 0,-2.179293 1.754448,-3.93374 3.93374,-3.93374 z"
       sodipodi:nodetypes="sssssssss" />
    <text
       xml:space="preserve"
       style="font-weight:bold;font-size:8.37249px;font-family:'Noto Sans';-inkscape-font-specification:'Noto Sans Bold';fill:#f9ff3d;fill-opacity:1;stroke:none;stroke-width:0.53737;stroke-dasharray:none;stroke-opacity:1"
       x="82.020828"
       y="50.270836"
       id="text1-9-1"><tspan
         sodipodi:role="line"
         id="tspan1-5-4"
         style="fill:#f9ff3d;fill-opacity:1;stroke:none;stroke-width:0.53737;stroke-opacity:1"
         x="82.020828"
         y="50.270836">Depth</tspan></text>
    <path
       id="rect1-8-3"
       style="font-variation-settings:normal;opacity:1;vector-effect:none;fill:#0e3258;fill-opacity:1;stroke:#5d9fe5;stroke-width:1;stroke-linecap:butt;stroke-linejoin:miter;stroke-miterlimit:4;stroke-dasharray:none;stroke-dashoffset:0;stroke-opacity:1;-inkscape-stroke:none;stop-color:#000000;stop-opacity:1"
       d="m 158.9802,40.755242 h 57.17775 c 2.17929,0 3.93374,1.754447 3.93374,3.933739 v 28.433452 c 0,2.179292 -1.75445,3.93374 -3.93374,3.93374 H 158.9802 c -2.17929,0 -3.93374,-1.754448 -3.93374,-3.93374 V 44.688981 c 0,-2.179292 1.75445,-3.933739 3.93374,-3.933739 z"
       sodipodi:nodetypes="sssssssss" />
    <text
       xml:space="preserve"
       style="font-weight:bold;font-size:8.37249px;font-family:'Noto Sans';-inkscape-font-specification:'Noto Sans Bold';fill:#3d9bff;fill-opacity:1;stroke:none;stroke-width:0.53737;stroke-dasharray:none;stroke-opacity:1"
       x="159.67271"
       y="51.233673"
       id="text1-9-0"><tspan
         sodipodi:role="line"
         id="tspan1-5-5"
         style="fill:#3d9bff;fill-opacity:1;stroke:none;stroke-width:0.53737;stroke-opacity:1"
         x="159.67271"
         y="51.233673">Stencil</tspan></text>
    <text
       xml:space="preserve"
       style="font-weight:bold;font-size:8.37249px;font-family:'Noto Sans';-inkscape-font-specification:'Noto Sans Bold';fill:#4aff3d;fill-opacity:1;stroke:none;stroke-width:0.53737;stroke-dasharray:none;stroke-opacity:1"
       x="116.9572"
       y="86.267258"
       id="text4"><tspan
         sodipodi:role="line"
         id="tspan4"
         style="fill:#4aff3d;fill-opacity:1;stroke:none;stroke-width:0.53737;stroke-opacity:1"
         x="116.9572"
         y="86.267258">Depth / Stencil</tspan></text>
    <path
       id="path5"
       style="fill:none;stroke:#e55d5d;stroke-opacity:1"
       d="m 64.787779,45.938283 v 26.857276 c 0,2.17929 -1.754322,3.93361 -3.93361,3.93361 H 2.3884868 v 1.358056 c 0,2.17929 1.75432,3.93361 3.9336096,3.93361 H 63.500003 c 2.179288,0 3.93361,-1.75432 3.93361,-3.93361 V 49.653819 c 0,-1.727296 -1.103548,-3.18405 -2.645834,-3.715536 z" />
    <path
       id="path6"
       style="fill:none;stroke:#6b6b6b;stroke-opacity:1"
       d="M -6.6145764,6.6145844 222.25002,7.9375014 c 2.17925,0.0126 3.96875,1.789458 3.96875,3.9687496 v 80.69792 c 0,2.179294 -1.75448,3.946002 -3.93374,3.93374 L -6.6145784,95.250005 c -2.179257,-0.01226 -3.9327946,-1.754449 -3.9337396,-3.93374 l -0.03501,-80.732932 c -9.45e-4,-2.1792916 1.7894966,-3.9813456 3.9687516,-3.9687486 z"
       sodipodi:nodetypes="sssssssss" />
    <text
       xml:space="preserve"
       style="font-weight:bold;font-size:13.2801px;font-family:'Noto Sans';-inkscape-font-specification:'Noto Sans Bold';fill:#c7c7c7;fill-opacity:1;stroke:none;stroke-width:0.53737;stroke-dasharray:none;stroke-opacity:1"
       x="-3.309382"
       y="26.529367"
       id="text6"><tspan
         sodipodi:role="line"
         id="tspan6"
         style="fill:#c7c7c7;fill-opacity:1;stroke:none;stroke-width:0.53737;stroke-opacity:1"
         x="-3.309382"
         y="26.529367">Framebuffer</tspan></text>
  </g>
</svg>
